HIERARCHY
ROOT Hips
{
 OFFSET 0.000000 0.000000 0.000000
 CHANNELS 6 Xposition Yposition Zposition Yrotation Xrotation Zrotation
 JOINT Chest
 {
  OFFSET 0.000000 0.102018 -0.011335
  CHANNELS 3 Yrotation Xrotation Zrotation
  JOINT Chest2
  {
   OFFSET 0.000000 0.113281 0.000000
   CHANNELS 3 Yrotation Xrotation Zrotation
   JOINT Chest3
   {
    OFFSET 0.000000 0.103427 -0.000012
    CHANNELS 3 Yrotation Xrotation Zrotation
    JOINT Chest4
    {
     OFFSET 0.000000 0.103311 -0.000012
     CHANNELS 3 Yrotation Xrotation Zrotation
     JOINT Neck
     {
      OFFSET 0.000000 0.144629 0.000000
      CHANNELS 3 Yrotation Xrotation Zrotation
      JOINT Head
      {
       OFFSET 0.000000 0.096187 0.000027
       CHANNELS 3 Yrotation Xrotation Zrotation
       End Site
       {
        OFFSET 0.000000 0.178569 0.000004
       }
      }
     }
     JOINT RightCollar
     {
      OFFSET -0.031491 0.081079 0.000000
      CHANNELS 3 Yrotation Xrotation Zrotation
      JOINT RightShoulder
      {
       OFFSET -0.147266 0.000000 0.000000
       CHANNELS 3 Yrotation Xrotation Zrotation
       JOINT RightElbow
       {
        OFFSET -0.314897 0.000000 0.000000
        CHANNELS 3 Yrotation Xrotation Zrotation
        JOINT RightWrist
        {
         OFFSET -0.257483 0.000000 0.000000
         CHANNELS 3 Yrotation Xrotation Zrotation
         JOINT RightFinger0
         {
          OFFSET -0.028813 0.000000 0.028392
          CHANNELS 3 Yrotation Xrotation Zrotation
          JOINT RightFinger01
          {
           OFFSET -0.037259 0.000000 0.000000
           CHANNELS 3 Yrotation Xrotation Zrotation
           JOINT RightFinger02
           {
            OFFSET -0.032704 0.000000 0.000000
            CHANNELS 3 Yrotation Xrotation Zrotation
            End Site
            {
             OFFSET -0.032704 0.000000 0.000000
            }
           }
          }
         }
         JOINT RightFinger1
         {
          OFFSET -0.096272 0.000000 0.012724
          CHANNELS 3 Yrotation Xrotation Zrotation
          JOINT RightFinger11
          {
           OFFSET -0.043535 0.000000 0.000000
           CHANNELS 3 Yrotation Xrotation Zrotation
           JOINT RightFinger12
           {
            OFFSET -0.023766 0.000000 0.000000
            CHANNELS 3 Yrotation Xrotation Zrotation
            End Site
            {
             OFFSET -0.021347 0.000000 0.000000
            }
           }
          }
         }
         JOINT RightFinger2
         {
          OFFSET -0.096429 0.000000 0.000000
          CHANNELS 3 Yrotation Xrotation Zrotation
          JOINT RightFinger21
          {
           OFFSET -0.047636 0.000000 0.000000
           CHANNELS 3 Yrotation Xrotation Zrotation
           JOINT RightFinger22
           {
            OFFSET -0.028182 0.000000 0.000000
            CHANNELS 3 Yrotation Xrotation Zrotation
            End Site
            {
             OFFSET -0.022399 0.000000 0.000000
            }
           }
          }
         }
         JOINT RightFinger3
         {
          OFFSET -0.092742 0.000000 -0.012829
          CHANNELS 3 Yrotation Xrotation Zrotation
          JOINT RightFinger31
          {
           OFFSET -0.045218 0.000000 0.000000
           CHANNELS 3 Yrotation Xrotation Zrotation
           JOINT RightFinger32
           {
            OFFSET -0.026815 0.000000 0.000000
            CHANNELS 3 Yrotation Xrotation Zrotation
            End Site
            {
             OFFSET -0.022609 0.000000 0.000000
            }
           }
          }
         }
         JOINT RightFinger4
         {
          OFFSET -0.085173 0.000000 -0.022924
          CHANNELS 3 Yrotation Xrotation Zrotation
          JOINT RightFinger41
          {
           OFFSET -0.037751 0.000000 0.000000
           CHANNELS 3 Yrotation Xrotation Zrotation
           JOINT RightFinger42
           {
            OFFSET -0.020506 0.000000 0.000000
            CHANNELS 3 Yrotation Xrotation Zrotation
            End Site
            {
             OFFSET -0.021768 0.000000 0.000000
            }
           }
          }
         }
        }
       }
      }
     }
     JOINT LeftCollar
     {
      OFFSET 0.031491 0.081079 0.000000
      CHANNELS 3 Yrotation Xrotation Zrotation
      JOINT LeftShoulder
      {
       OFFSET 0.147266 0.000000 0.000000
       CHANNELS 3 Yrotation Xrotation Zrotation
       JOINT LeftElbow
       {
        OFFSET 0.314897 0.000000 0.000000
        CHANNELS 3 Yrotation Xrotation Zrotation
        JOINT LeftWrist
        {
         OFFSET 0.257483 0.000000 0.000000
         CHANNELS 3 Yrotation Xrotation Zrotation
         JOINT LeftFinger0
         {
          OFFSET 0.028813 0.000000 0.028392
          CHANNELS 3 Yrotation Xrotation Zrotation
          JOINT LeftFinger01
          {
           OFFSET 0.037259 0.000000 0.000000
           CHANNELS 3 Yrotation Xrotation Zrotation
           JOINT LeftFinger02
           {
            OFFSET 0.032704 0.000000 0.000000
            CHANNELS 3 Yrotation Xrotation Zrotation
            End Site
            {
             OFFSET 0.032704 0.000000 0.000000
            }
           }
          }
         }
         JOINT LeftFinger1
         {
          OFFSET 0.096272 0.000000 0.012724
          CHANNELS 3 Yrotation Xrotation Zrotation
          JOINT LeftFinger11
          {
           OFFSET 0.043535 0.000000 0.000000
           CHANNELS 3 Yrotation Xrotation Zrotation
           JOINT LeftFinger12
           {
            OFFSET 0.023766 0.000000 0.000000
            CHANNELS 3 Yrotation Xrotation Zrotation
            End Site
            {
             OFFSET 0.021347 0.000000 0.000000
            }
           }
          }
         }
         JOINT LeftFinger2
         {
          OFFSET 0.096429 0.000000 0.000000
          CHANNELS 3 Yrotation Xrotation Zrotation
          JOINT LeftFinger21
          {
           OFFSET 0.047636 0.000000 0.000000
           CHANNELS 3 Yrotation Xrotation Zrotation
           JOINT LeftFinger22
           {
            OFFSET 0.028182 0.000000 0.000000
            CHANNELS 3 Yrotation Xrotation Zrotation
            End Site
            {
             OFFSET 0.022399 0.000000 0.000000
            }
           }
          }
         }
         JOINT LeftFinger3
         {
          OFFSET 0.092742 0.000000 -0.012829
          CHANNELS 3 Yrotation Xrotation Zrotation
          JOINT LeftFinger31
          {
           OFFSET 0.045218 0.000000 0.000000
           CHANNELS 3 Yrotation Xrotation Zrotation
           JOINT LeftFinger32
           {
            OFFSET 0.026815 0.000000 0.000000
            CHANNELS 3 Yrotation Xrotation Zrotation
            End Site
            {
             OFFSET 0.022609 0.000000 0.000000
            }
           }
          }
         }
         JOINT LeftFinger4
         {
          OFFSET 0.085173 0.000000 -0.022924
          CHANNELS 3 Yrotation Xrotation Zrotation
          JOINT LeftFinger41
          {
           OFFSET 0.037751 0.000000 0.000000
           CHANNELS 3 Yrotation Xrotation Zrotation
           JOINT LeftFinger42
           {
            OFFSET 0.020506 0.000000 0.000000
            CHANNELS 3 Yrotation Xrotation Zrotation
            End Site
            {
             OFFSET 0.021768 0.000000 0.000000
            }
           }
          }
         }
        }
       }
      }
     }
    }
   }
  }
 }
 JOINT RightHip
 {
  OFFSET -0.083928 0.000042 -0.000005
  CHANNELS 3 Yrotation Xrotation Zrotation
  JOINT RightKnee
  {
   OFFSET 0.000000 -0.434494 -0.000003
   CHANNELS 3 Yrotation Xrotation Zrotation
   JOINT RightAnkle
   {
    OFFSET 0.000000 -0.424439 -0.000005
    CHANNELS 3 Yrotation Xrotation Zrotation
    JOINT RightToe
    {
     OFFSET 0.000000 -0.076670 0.174296
     CHANNELS 3 Yrotation Xrotation Zrotation
     End Site
     {
      OFFSET 0.000000 -0.016574 0.072387
     }
    }
   }
  }
 }
 JOINT LeftHip
 {
  OFFSET 0.083928 0.000019 -0.000002
  CHANNELS 3 Yrotation Xrotation Zrotation
  JOINT LeftKnee
  {
   OFFSET 0.000000 -0.434494 -0.000003
   CHANNELS 3 Yrotation Xrotation Zrotation
   JOINT LeftAnkle
   {
    OFFSET 0.000000 -0.424439 -0.000005
    CHANNELS 3 Yrotation Xrotation Zrotation
    JOINT LeftToe
    {
     OFFSET 0.000000 -0.076670 0.174296
     CHANNELS 3 Yrotation Xrotation Zrotation
     End Site
     {
      OFFSET 0.000000 -0.016574 0.072387
     }
    }
   }
  }
 }
}
MOTION
Frames: 4
Frame Time: 0.004167
0.476835 0.954663 0.201683 -0.700382 3.614755 0.201736 -0.680464 0.176400 0.235513 -0.313223 -5.748278 0.105461 -0.311656 0.072068 0.073665 -0.228106 5.890695 0.055557 -5.072545 15.819786 -1.935246 -8.745426 -6.621072 -1.761582 6.288394 0.218599 10.126218 -3.812209 -5.449847 74.032647 1.244617 -3.415274 1.859212 6.626770 2.483739 -3.024766 65.477458 62.896659 45.013966 -0.000073 0.000085 12.640543 -0.000064 0.000016 4.816644 -5.319088 -0.398619 13.349381 1.854657 1.826967 26.753514 2.203147 2.292067 21.595298 -7.859474 -1.292637 23.895794 -0.821070 -0.736243 26.263213 -0.800235 -0.810275 16.706493 -8.851096 -1.273931 30.000536 -2.269706 -2.049267 26.142262 -2.208755 -2.254160 16.586638 -6.317490 -4.771510 14.938147 -7.692703 -1.586671 48.971981 -7.877698 -2.921056 30.811376 -4.734023 -0.514098 -10.841809 6.576663 -5.925318 -73.560431 -2.930589 5.240921 -0.836638 0.313651 0.947443 -3.086261 -71.609062 63.306214 -48.956713 -0.000011 0.000007 -11.887356 -0.000024 0.000014 0.114686 8.550298 3.762613 -31.508817 -2.618919 2.655693 -24.055187 -2.538133 2.873972 -15.237039 8.920580 1.342597 -34.564484 -0.097659 0.156799 -16.588024 -0.094002 0.162355 -10.555907 10.523770 -1.647337 -43.351602 2.532845 -3.624133 -18.317175 2.432789 -3.785689 -11.570849 8.734145 -1.911330 -32.147003 2.721850 -3.230419 -21.333180 2.625490 -3.432238 -13.490132 -5.807473 -1.429439 -4.547941 -0.053380 3.284151 0.400383 0.776682 -5.072404 2.094473 -0.000000 0.000000 0.000000 7.794591 -0.881770 4.512798 -0.143213 1.875573 -0.641129 -0.425823 -2.554278 -1.926847 0.000000 -0.716910 -0.000000
0.476835 0.954662 0.201676 -0.698928 3.614385 0.201620 -0.680982 0.176141 0.235641 -0.313459 -5.748393 0.105518 -0.311891 0.071952 0.073698 -0.228279 5.890608 0.055583 -5.071969 15.818111 -1.934484 -8.744677 -6.624154 -1.760280 6.287662 0.218599 10.127602 -3.812199 -5.449963 74.029427 1.246058 -3.416574 1.861126 6.626887 2.483246 -3.025393 65.477458 62.896659 45.013966 -0.000073 0.000085 12.640543 -0.000064 0.000016 4.816644 -5.319088 -0.398619 13.349381 1.854657 1.826967 26.753514 2.203147 2.292067 21.595298 -7.859474 -1.292637 23.895794 -0.821070 -0.736243 26.263213 -0.800235 -0.810275 16.706493 -8.851096 -1.273931 30.000536 -2.269706 -2.049267 26.142262 -2.208755 -2.254160 16.586638 -6.317490 -4.771510 14.938147 -7.692703 -1.586671 48.971981 -7.877698 -2.921056 30.811376 -4.733716 -0.514587 -10.841925 6.574783 -5.925303 -73.562096 -2.930340 5.239782 -0.836160 0.312947 0.947036 -3.085682 -71.609062 63.306214 -48.956713 -0.000011 0.000007 -11.887356 -0.000024 0.000014 0.114686 8.550298 3.762613 -31.508817 -2.618919 2.655693 -24.055187 -2.538133 2.873972 -15.237039 8.920580 1.342597 -34.564484 -0.097659 0.156799 -16.588024 -0.094002 0.162355 -10.555907 10.523770 -1.647337 -43.351602 2.532845 -3.624133 -18.317175 2.432789 -3.785689 -11.570849 8.734145 -1.911330 -32.147003 2.721850 -3.230419 -21.333180 2.625490 -3.432238 -13.490132 -5.805295 -1.429006 -4.547988 -0.055401 3.284019 0.400389 0.775293 -5.072146 2.094576 -0.000000 -0.000000 0.000000 7.793192 -0.881834 4.512742 -0.143037 1.875546 -0.641508 -0.425849 -2.553806 -1.925412 0.000000 -0.717804 0.000000
0.476837 0.954660 0.201669 -0.696834 3.614310 0.201257 -0.681611 0.175843 0.235945 -0.313752 -5.748526 0.105654 -0.312182 0.071819 0.073803 -0.228490 5.890508 0.055662 -5.071459 15.816392 -1.933534 -8.744119 -6.627308 -1.758601 6.286065 0.218050 10.128263 -3.811538 -5.449838 74.027017 1.246627 -3.417553 1.862698 6.628918 2.482540 -3.026011 65.477458 62.896659 45.013966 -0.000073 0.000085 12.640543 -0.000064 0.000016 4.816644 -5.319088 -0.398619 13.349381 1.854657 1.826967 26.753514 2.203147 2.292067 21.595298 -7.859474 -1.292637 23.895794 -0.821070 -0.736243 26.263213 -0.800235 -0.810275 16.706493 -8.851096 -1.273931 30.000536 -2.269706 -2.049267 26.142262 -2.208755 -2.254160 16.586638 -6.317490 -4.771510 14.938147 -7.692703 -1.586671 48.971981 -7.877698 -2.921056 30.811376 -4.734185 -0.515858 -10.841749 6.573528 -5.924689 -73.563492 -2.930848 5.238753 -0.835681 0.313017 0.946239 -3.085799 -71.609062 63.306214 -48.956713 -0.000011 0.000007 -11.887356 -0.000024 0.000014 0.114686 8.550298 3.762613 -31.508817 -2.618919 2.655693 -24.055187 -2.538133 2.873972 -15.237039 8.920580 1.342597 -34.564484 -0.097659 0.156799 -16.588024 -0.094002 0.162355 -10.555907 10.523770 -1.647337 -43.351602 2.532845 -3.624133 -18.317175 2.432789 -3.785689 -11.570849 8.734145 -1.911330 -32.147003 2.721850 -3.230419 -21.333180 2.625490 -3.432238 -13.490132 -5.803288 -1.429126 -4.547906 -0.057722 3.284229 0.400541 0.773120 -5.071926 2.094560 -0.000000 0.000000 -0.000000 7.791535 -0.882512 4.512708 -0.142555 1.876186 -0.640889 -0.427262 -2.554738 -1.924719 0.000000 -0.715023 -0.000000
0.476839 0.954658 0.201661 -0.695592 3.613943 0.201140 -0.682065 0.175499 0.235972 -0.313955 -5.748679 0.105666 -0.312384 0.071666 0.073795 -0.228642 5.890393 0.055656 -5.070660 15.814790 -1.932473 -8.743061 -6.630244 -1.756827 6.285261 0.217494 10.129370 -3.811300 -5.449764 74.024114 1.247509 -3.417424 1.864221 6.630334 2.481657 -3.026608 65.477458 62.896659 45.013966 -0.000073 0.000085 12.640543 -0.000064 0.000016 4.816644 -5.319088 -0.398619 13.349381 1.854657 1.826967 26.753514 2.203147 2.292067 21.595298 -7.859474 -1.292637 23.895794 -0.821070 -0.736243 26.263213 -0.800235 -0.810275 16.706493 -8.851096 -1.273931 30.000536 -2.269706 -2.049267 26.142262 -2.208755 -2.254160 16.586638 -6.317490 -4.771510 14.938147 -7.692703 -1.586671 48.971981 -7.877698 -2.921056 30.811376 -4.733986 -0.517280 -10.841068 6.572155 -5.922814 -73.564738 -2.931624 5.237557 -0.835622 0.313201 0.945916 -3.086298 -71.609062 63.306214 -48.956713 -0.000011 0.000007 -11.887356 -0.000024 0.000014 0.114686 8.550298 3.762613 -31.508817 -2.618919 2.655693 -24.055187 -2.538133 2.873972 -15.237039 8.920580 1.342597 -34.564484 -0.097659 0.156799 -16.588024 -0.094002 0.162355 -10.555907 10.523770 -1.647337 -43.351602 2.532845 -3.624133 -18.317175 2.432789 -3.785689 -11.570849 8.734145 -1.911330 -32.147003 2.721850 -3.230419 -21.333180 2.625490 -3.432238 -13.490132 -5.800145 -1.428648 -4.548224 -0.060171 3.284265 0.401087 0.771510 -5.071454 2.094594 0.000000 0.000000 -0.000000 7.790272 -0.883473 4.512765 -0.141565 1.877561 -0.640916 -0.428927 -2.555182 -1.923619 0.000000 -0.714971 -0.000000
